<?xml version="1.0" encoding="utf-8"?>
<svg version="1.0" id="Layer_1" xmlns="http://www.w3.org/2000/svg" xmlns:xlink="http://www.w3.org/1999/xlink" x="0px" y="0px"
	 viewBox="0 0 24 24" enable-background="new 0 0 24 24" xml:space="preserve">
<path fill="#A749E6" d="M5.3,20.9C5.3,20.9,5.3,21,5.3,20.9C5.3,21,5.3,21,5.3,20.9C5.3,21,5.3,21,5.3,20.9C5.3,21,5.3,21,5.3,20.9
	l4.5,2.6c0,0,0,0,0,0c0,0,0,0,0,0c0,0,0,0,0.1,0c0,0,0,0,0.1,0c0,0,0,0,0,0c0,0,0,0,0,0l4.4-2.5c0,0,0,0,0,0c0,0,0,0,0,0
	c0,0,0,0,0,0c0,0,0,0,0,0c0,0,0,0,0,0c0,0,0,0,0,0v-5l4.3-2.5c0,0,0,0,0,0c0,0,0,0,0,0c0,0,0,0,0,0c0,0,0,0,0,0c0,0,0,0,0,0
	c0,0,0,0,0,0V8.2V3.1c0,0,0,0,0,0c0,0,0,0,0,0c0,0,0,0,0,0c0,0,0,0,0,0c0,0,0,0,0,0c0,0,0,0,0,0c0,0,0,0,0,0c0,0,0,0,0,0
	c0,0,0,0,0,0c0,0,0,0,0,0l-4.4-2.5c0,0,0,0,0,0c0,0,0,0,0,0c0,0,0,0,0,0c0,0,0,0,0,0c0,0,0,0,0,0c0,0,0,0,0,0L9.7,3c0,0,0,0,0,0
	c0,0,0,0,0,0c0,0,0,0,0,0c0,0,0,0,0,0c0,0,0,0,0,0c0,0,0,0,0,0c0,0,0,0,0,0c0,0,0,0,0,0c0,0,0,0,0,0c0,0,0,0,0,0v5l-4.3,2.5
	c0,0,0,0,0,0c0,0,0,0,0,0c0,0,0,0,0,0c0,0,0,0,0,0c0,0,0,0,0,0s0,0,0,0c0,0,0,0,0,0c0,0,0,0,0,0c0,0,0,0,0,0c0,0,0,0,0,0v5.1
	L5.3,20.9C5.3,20.9,5.3,20.9,5.3,20.9C5.3,20.9,5.3,20.9,5.3,20.9z M14.2,0.7l4.1,2.4l-4.1,2.4l-4.1-2.4L14.2,0.7z M14.1,20.8
	l-4.1,2.4v-4.8l4.1-2.4L14.1,20.8z M18.5,8.1l-4.1,2.4V5.7l4.1-2.4V8.1z M9.9,18.1v-4.8l4.1-2.4v4.8L9.9,18.1z M14.3,10.8l4.1-2.4
	v4.8l-4.1,2.4V10.8z M9.8,8.3l4.1,2.4l-4.1,2.4l-4.1-2.4L9.8,8.3z"/>
</svg>